# xmcd
#
# Track frame offsets: 
#        150
#        20161
#        36611
#        63273
#        78966
#        86335
#        101911
#        116759
#        135165
#        150794
#        165511
#
# Disc length: 2382 seconds
#
# Revision: 0
# Processed by: cddbd v1.5.2PL0 Copyright (c) Steve Scherf et al.
# Submitted via: ExactAudioCopyFreeDBPlugin 1.0
#
DISCID=7f094c0b
DTITLE=Anderson .Paak - Ventura
DYEAR=2019
DGENRE=R&B
TTITLE0=Come Home (feat. André 3000)
TTITLE1=Make It Better (feat. Smokey Robinson)
TTITLE2=Reachin' 2 Much (feat. Lalah Hathaway)
TTITLE3=Winners Circle
TTITLE4=Good Heels (feat. Jazmine Sullivan)
TTITLE5=Yada Yada
TTITLE6=King James
TTITLE7=Chosen One (feat. Sonyae Elise)
TTITLE8=Jet Black (feat. Brandy)
TTITLE9=Twilight
TTITLE10=What Can We Do? (feat. Nate Dogg)
EXTD=
EXTT0=
EXTT1=
EXTT2=
EXTT3=
EXTT4=
EXTT5=
EXTT6=
EXTT7=
EXTT8=
EXTT9=
EXTT10=
PLAYORDER=
